<svg xmlns="http://www.w3.org/2000/svg" width="1024" height="1024" baseProfile="tiny-ps"><title>bimi-svg-tiny-12-ps</title><path fill="#083a7a" d="M827 329h4v2h2v2h3v2l4 1v2h2v2h2v2h2v2l3 1v2h2v2l1.77.25c2.88.97 4.03 2.38 5.98 4.69l1.86 2.15C862 358 862 358 862 360h2v2h2v2h2c2.17 2.96 3.84 5.5 5 9h2v2h2v2h2l1 4h2l2 5h2v2h2v2h2a25 25 0 0 1 2.63 3.38l1.35 1.9C895 397 895 397 895 399h2v2h2v2h2v3h2l1 4h2v2h2v2h2v2h2a47 47 0 0 1 3.5 3.94c2.39 2.98 2.39 2.98 5.5 5.06v2h2c2.3 2.56 3 3.48 3 7l4 2v2l4 1v2h2q1.53 2.49 3 5l2 1v2h2v2h2v3h2q2.53 2.97 5 6l2 1v3h2v2h2a25 25 0 0 1 2.63 3.38l1.35 1.9C963 473 963 473 963 475h2v2h2v2h2c3 3.46 3 3.46 3 6h2v2h2c2 2 2 2 2 5h2c3 4.38 3 4.38 3 7h2v3h2v2h2c2 2 2 2 2 5h2a28 28 0 0 1 2.63 3.81l1.35 2.15C998 517 998 517 998 520h2v3h2l-1 5c-16.06 1.78-32.02 3.3-48.19 3.7l-3.08.09-2.7.05c-2.03-.06-2.03-.06-3.03 1.16-2.67.09-5.3.12-7.97.1h-2.42l-12.86-.05L908 533v3h-2l.13 3.63c0 3.83-.75 6.76-2.13 10.37a71 71 0 0 0-3 16h-2l.06 3.44C899 573 899 573 898 574q-.98 4.72-1.8 9.45c-.65 3.43-1.24 5.6-3.2 8.55-.46 2.5-.46 2.5-.62 5.19l-.23 2.73L892 602h-2v8h-2v7h-2v9h-2l.06 2.94C884 632 884 632 883 633l-.44 3.19A55 55 0 0 1 880 646l-.5 3.63A18 18 0 0 1 877 657h-2v5h-2l-.37 2.75A23 23 0 0 1 870 672q-1.04 3-2 6h-2v3h-2v5h-2v4h-2l-.37 1.56c-2.3 8.94-2.3 8.94-4.63 12.44h-2v2h-2l-.81 2.63A70 70 0 0 1 846 718h-2v3h-2v3h-2l-.25 2.13c-.93 3.56-2.52 5.96-4.75 8.87h-2v3h-2l-.87 2.31C829 743 829 743 827 746h-2l-1 5h-2v2h-2v3a91 91 0 0 1-4 4l-1 2h-2l-1 3-1 2h-2v2h-2v2h-2l-.37 1.81C804 775 804 775 802 778h-2v2h-2v2h-2l-2 4h-2l-1 4h-2v2h-2v2c-2.37 2.63-2.37 2.63-5 5h-2v2h-2v2h-2v2h-2v2l-1.94.31-2.06.69-1 3h-2v2h-2v2h-2v2c-4.47 4-4.47 4-7 4v2h-2v2h-2v2l-1.94.31-2.06.69-1 3h-2v2l-4 1v2c-2.96 2.17-5.5 3.84-9 5v2l-5 2v2l-4 1v2l-6 2v2h-3v2l-6 2v2c-4.38 3-4.38 3-7 3v2l-9.32 5.07-2 1.08-1.85 1c-1.92.9-3.76 1.4-5.83 1.85v2h-3v2h-4v2h-4v2c-2.48 1.73-2.48 1.73-5.75 3.63l-3.23 1.9C659 889 659 889 655 889v2h-4v2l-7 1v2c-3.37 1.5-5.2 2-9 2v2h-4v2a26 26 0 0 1-7.94 3.63l-2.59.78C618 907 618 907 614 907v2h-5v2h-6v2l-3.11.7c-7.62 1.77-14.58 3.7-21.56 7.35-2.6 1.06-4.54 1.13-7.33.95v2h-7v2l-2.68.33c-5.84.77-11.48 1.6-17.13 3.3-4.9 1.44-9.1 1.62-14.19 1.37v2h-11v2h-14v2l-2.08.08-9.3.36-3.27.12-3.12.12-2.9.11c-2.35.07-2.35.07-4.33 1.21q-2.31.14-4.62.13h-41.45C432 939 432 939 431 938q-3.54-.23-7.1-.32l-2.15-.06-11.42-.31L399 937v-1l-14-1v-2l-2.59.04-3.35.02-3.34.04C373 933 373 933 372 932q-3.5-.55-7-1v-2l-3.12.13c-3.79-.13-6.37-.8-9.88-2.13q-2-.54-4-1v-2l-2.12-.31c-3.27-.78-5.93-2.11-8.88-3.69v-2h-3c-2-3-2-3-2-6l3.54.04c11 .07 21.97-.12 32.96-.48l3.75-.12c13.17.73 13.17.73 24.75-2.44q4.28-.11 8.56-.06l2.45.01 5.99.05v-2h14v-2l1.77-.15 8.1-.73 2.79-.23c10.33-.27 10.33-.27 19.34-3.89 2.67-.14 5.32-.04 8 0v-2h7v-2h7v-2l2.94-.25c3.98-.56 7.24-2.07 10.86-3.76 4.67-2.1 9.07-3.3 14.2-2.99v-2l3.07-.77 4.05-1.04 2.02-.5A56 56 0 0 0 531 878c2.88-.19 2.88-.19 5 0v-2h3v-2h6v-2l4.75-2.5 2.67-1.4C555 867 555 867 559 867v-2h4v-2c6.5-3 6.5-3 11-3v-2h4v-2h3v-2h2v-2h4v-2l5-1v-2l6-2v-2h4v-2h3v-2c1.64-1.29 1.64-1.29 3.81-2.62l2.15-1.36C613 834 613 834 616 834v-2h2v-2c4.38-3 4.38-3 7-3v-2h2v-2h4v-2c1.46-1.29 1.46-1.29 3.38-2.62l1.9-1.36C638 816 638 816 640 816v-2h2v-2h2v-2c2.85-2.61 5.13-4.43 9-5v-2h2v-2h2l1-3h2v-2h2v-2h2v-2h2l.81-1.81A16 16 0 0 1 671 785h2v-2h2v-2h2v-2h2l1-4h2v-3h2v-2h2v-2h2v-2c1.38-1.62 1.38-1.62 3-3h2v-3h2v-3h2v-2h2l.81-2.19c1.2-2.84 2.38-5.3 4.19-7.81 2.19-.81 2.19-.81 4-1v-4h2v-2h2l.52-1.9.73-2.48.7-2.46c1.27-2.62 2.37-3.15 5.05-4.16v-3h2l.37-1.7c.68-2.49 1.62-4.7 2.7-7.05l1.09-2.42.84-1.83h2v-2h2l.44-1.81q.69-2.62 1.56-5.19h2l.38-1.56c.8-3.17 1.71-6.3 2.62-9.44h2v-4h2v-5h2l.37-2.17a48 48 0 0 1 2.7-8.14q.53-1.33 1.09-2.68L748 667h1l1-6h2v-4h2l-.19-2.56c.19-3.35.97-5.32 2.39-8.3 1.68-4.5 2.14-9.39 2.8-14.14h2v-6h2l-.19-2.87c-.02-4.95 1.49-9.53 3.19-14.13l1-1q.34-3.03.56-6.06l.26-3.35.18-2.59h2v-11h1l1-10h2l-.02-2.19-.04-9.75-.03-3.44v-3.27c-.02-1.5-.02-1.5-.02-3.03C774 551 774 551 775 550q.34-2.52.56-5.06l.26-2.79.18-2.15-2 1c-11.5 1.18-23.07 1.14-34.62 1.1h-5.18l-13.46-.03-13.8-.02L680 542v-5h2v-3h2v-3h2v-2h2l.94-2.37C690 524 690 524 691 522h2v-3h2v-3h2l.75-2.19c1.36-3.06 3.14-5.22 5.25-7.81l1-3h2v-3h2v-2h2l2-5h2l1-5h2v-3h2v-3h2l.81-2.19A43 43 0 0 1 726 472h2v-2h2v-3h2l.81-2.12c3.49-8.44 3.49-8.44 6.38-10.25L741 454v-3h2l.25-1.62c1.03-3.25 2.72-5.67 4.75-8.38h2v-3h2v-3h2l.81-2.12A126 126 0 0 1 759 424h2v-2h2v-3h2l.81-1.62L767 415l1.38-3.12c1.67-2.96 2.48-3.8 5.62-4.88v-3h2v-3h2c1.08-2.65 2.1-5.28 3-8h2v-2h2v-3h2l.81-1.62L792 378h2v-2h2l.44-1.87C797 372 797 372 798 370h2c1.08-2.65 2.1-5.28 3-8h2v-2h2l2-5h2l.38-1.75A30 30 0 0 1 814 347h2v-3h2v-3h2v-2h2l1-4h2v-4h2z"/><path fill="#083a7a" d="M605 223h6v68h-1l-.03 3.56-.47 50.32a11813 11813 0 0 1-.3 31.6l-.01 2.62a78 78 0 0 1-.7 10.39c-.62 4.43-.66 8.77-.68 13.24l-.02 2.88-.05 6.16-.08 9.74-.19 24.2a15304 15304 0 0 1-.28 35.95l-.01 2.7-.03 2.49-.01 2.15c-.15 2.1-.63 3.96-1.14 6q-.14 2.04-.15 4.09l-.03 2.44v2.65q-.03 1.39-.03 2.82l-.05 6.05-.08 9.63-.16 20.5-.26 33.05c-.07 9.24-.26 18.43-.88 27.64-.52 8.03-.57 16.06-.64 24.11l-.17 15.73-.33 30.31A3893 3893 0 0 1 602 738l-1.94.31-2.06.69-1 3q-1.24.45-2.5.94L592 744l-.41 1.9c-.8 2.84-2.02 3.38-4.53 4.85l-2.15 1.3C583 753 583 753 581 753v2h-3v2l-4.81 2.5-2.71 1.4C568 762 568 762 565 762v2c-2.65 1.46-3.9 2-7 2v2l-4.25 1.5-2.4.84C549 771 549 771 545 771v2h-6v2a27 27 0 0 1-12 2v2h-6v2h-8v2l-1.95.33a204 204 0 0 0-15.24 3.23c-5.9 1.42-11.64 1.91-17.7 2.15-3.34-.16-3.34-.16-6.11 1.29q-2.47.18-4.94.19l-2.71.04C462 790 462 790 460 788c-.2-2.78-.27-5.47-.25-8.25l-.01-2.63v-8.82l-.01-6.34v-17.52l-.02-18.86-.01-36.98-.01-40.85-.01-60.42v-20.81q.01-36.12-.02-72.23a88641 88641 0 0 1-.02-91.86l-.02-32.17v-55.24q-.02-8.54 0-17.07v-14.57l-.02-2.47c.06-5.4.06-5.4 1.7-7.86 2.95-1.82 6.3-2.38 9.64-3.11 6.24-1.36 6.24-1.36 12.06-3.94 6.63-3.26 12.74-5.6 20-7l1-1q3-.06 6 0v-2l2.2-.55c4.27-1.11 8.2-2.15 12.17-4.14 2.82-1.4 4.53-1.58 7.63-1.31v-2l3-.81a80 80 0 0 0 8.13-2.81c3.07-1.2 5.53-1.7 8.87-1.38v-2h6v-2l3.25-.77 4.31-1.04 2.14-.5a56 56 0 0 0 10.08-3.33C581 232 581 232 585 232v-2h6v-2l2.8-.84 3.64-1.1 3.62-1.09c2.8-.68 2.8-.68 3.94-1.97"/><path fill="#083a7a" d="m401.9 30.75 2.98-.02 3.25.01h3.44q5.64-.02 11.27 0l7.83-.01h16.4q9.48.03 18.96 0a6922 6922 0 0 1 26 0l10.84.01 3.25-.01 2.98.02h2.6c2.52.27 4.08 1.05 6.3 2.25q3.12.61 6.26 1.04l3.64.5 3.79.52 7.45 1.04 3.33.45C545 37 545 37 546 38q2.25.3 4.5.5c4.39.39 4.39.39 5.5 1.5q3.5.55 7 1v2h7v2l2.88-.25c4.28 0 7.6 1.49 11.5 3.17 3.4 1.4 6.88 2.4 10.41 3.42 2.47.74 4.84 1.63 7.21 2.66v2l3.19.38c3.3.54 5.77 1.3 8.81 2.62q2 .55 4 1l4 1v2h5v2l2.69.31c3.4.7 5.4 1.85 8.31 3.69 2.2.7 2.2.7 4 1v2h4v2l1.81.44q2.63.69 5.19 1.56v2l1.94.25c6.26 1.53 12.2 4.54 17.62 8 4.39 2.76 8.89 5.27 13.44 7.75v2h4v2h3v2h4v2c2.65 1.08 5.28 2.1 8 3v2l5 2v2h3v2l2.88.94A28 28 0 0 1 721 116v2l2.13.75A44 44 0 0 1 732 124v2l4 1v2l5 2v2l2 .56c3.56 1.7 6.03 3.92 8.93 6.56 2.53 2.3 5.17 4.46 7.82 6.62C761 148 761 148 761 150l4 1v2h2v2l1.56.69A51 51 0 0 1 778 162v2h2l1 4h2v2h2v2h2v2l4 1 .25 1.88c.56 2.28.56 2.28 2.69 3.3l2.06.82 2 1v2h2v3h2c3 3.46 3 3.46 3 6h2a30 30 0 0 1 4 4v2h2a74 74 0 0 1 5 9h2c2 2 2 2 2 5h2a29 29 0 0 1 2.63 3.88l1.35 2.17C829 221 829 221 829 223h2v3h2v2h2c1.29 1.6 1.29 1.6 2.63 3.75l1.35 2.1C840 236 840 236 840 240h2v3h2v3h2l1.94 4.81 1.09 2.71q1.05 2.71 1.97 5.48h2v3h2v3h2a479 479 0 0 1 2.34 6.64C860 274 860 274 860 278h2v4h2v6h2v5h2c1.45 4.54 2.24 8.18 2 13h2l1.06 5.44.6 3.06.34 2.5c-1 1-1 1-3.31 1.31-3.49-.4-4.55-1.6-6.69-4.31v-2l-4-1v-3l-3-1v-2h-2v-2h-2v-2h-2v-3h-2v-2h-2v-2l-3-1v-2h-2v-2l-4-1v-2h-2c-1.62-1.37-1.62-1.37-3-3v-2c-3.63-.2-5.87.14-9 2v2h-2v2h-2v2h-2l-.81 1.75A33 33 0 0 1 813 297h-2v3h-2v2h-2l-2 5h-2l-.25 2.88c-.75 3.12-.75 3.12-2.81 4.5L798 315v3h-2l-.81 1.63L791 328h-2v3h-2v3h-2l-.81 2.19A43 43 0 0 1 780 344h-2l-.31 1.94L777 348l-3 1q-1.02 2.5-2 5a48 48 0 0 1-5 7h-2v2h-2l-.75 1.69A44 44 0 0 1 757 372l-5-1v-4h-2v-5h-2a519 519 0 0 1-3.9-6.74C743 353 743 353 743 350h-2c-1.76-3.09-2-4.23-2-8h-2l-.59-1.64-.78-2.17-.78-2.15c-.88-2.29-.88-2.29-2.85-5.04v-3h-2v-4h-2v-2h-2c-3-6.62-3-6.62-3-10h-2c-1.46-2.65-2-3.9-2-7h-2l-4.59-8.98A28 28 0 0 1 710 289h-2v-2h-2v-3h-2l-2.5-4.37-1.4-2.47C699 275 699 275 699 273h-2v-3h-2v-2h-2v-3h-2c-5-5.48-5-5.48-5-8h-2v-2h-2v-3h-2l-1-4h-2v-2h-2v-2h-2v-2l-1.77-.75c-2.57-1.44-3.98-3.04-5.85-5.31-2.33-2.92-2.33-2.92-5.38-4.94v-2h-2c-2.62-2.37-2.62-2.37-5-5v-2l-4-1v-2h-2l-1-4h-2v-2l-4-1v-2h-2v-2h-2v-2l-2.25-.81A23 23 0 0 1 627 201v-2h-2v-2l-5-2v-2h-2v-2l-2.37-.94C613 189 613 189 611 188v-2l-6-2v-2l-1.69-.81A74 74 0 0 1 596 177v-2h-4l-2-3q-3-1.7-6.12-3.19l-3.33-1.6L578 166v-2l-1.64-.3c-2.97-.88-5.42-2.25-8.11-3.76l-2.98-1.66L563 157v-2h-4v-2h-3v-2h-4v-2l-2.62-.37A60 60 0 0 1 540 146v-2h-4v-2l-2.69-.31c-3.31-.69-3.31-.69-5.56-2.06-4-2.37-8.3-3.41-12.75-4.63v-2h-5v-2h-6v-2l-2.87-.37C487.7 126.7 487.7 126.7 486 125a70 70 0 0 0-4.06-.56L478 124v-1l-3.44-.44C471 122 471 122 470 121q-3.1-.73-6.21-1.4-2.94-.64-5.86-1.36c-7.32-1.8-14.4-2.85-21.93-3.24v-2h-17v-1l-75-1v2l-15 1v1l-2.5.15c-8.35.56-16.22 1.57-24.25 3.98a28 28 0 0 1-9.25.87v2l-8 1v1l-3.69.44a80 80 0 0 0-16.04 3.8c-4.82 1.62-9.14 3.07-14.27 2.76v2c-3.82 1.42-6.91 2.24-11 2v2l-5.44 1.94-3.06 1.09c-2.4.74-2.4.74-3.5 1.97q-2.5.06-5 0v2h-5v2l-4.25 1.5-2.4.84C209 149 209 149 205 149v2h-4v2h-3v2h-4v2l-9 3v2c-7.43 3.29-7.43 3.29-11 4v2a129 129 0 0 1-13 5v2h-4l-1 3c-2.06.69-2.06.69-4 1v2l-2.94 1.38c-3.13 1.28-3.13 1.28-4.06 3.62h-4v2l-2.81 1.31A21 21 0 0 0 132 194a98 98 0 0 1-3.56 2.69l-1.82 1.32C125 199 125 199 123 199v2c-1.68 1.29-1.68 1.29-3.87 2.63l-2.18 1.35C115 206 115 206 113 206l-1 3c-2.06.69-2.06.69-4 1v2c-4.47 4-4.47 4-7 4v2l-4 1v2h-2v2h-2v2c-2.85 2.61-5.13 4.43-9 5v2h-2v2h-2l-1 4h-2v3l-7 2 1-7h2l.44-2.31C74 231 74 231 75 228h2l.38-1.69A58 58 0 0 1 80 219h2v-2h2v-2h2v-3h2l.38-1.75A30 30 0 0 1 91 204h2v-2h2v-3h2v-2h2l1-3h2v-3h2l1-3 1-2h2v-2h2l.94-1.87L113 178h2v-2h2v-2h2l.81-1.75A33 33 0 0 1 124 166h2v-2c1.71-1.66 1.71-1.66 3.94-3.5 2.98-2.39 2.98-2.39 5.06-5.5h2v-2h2v-2h2v-2l1.94-.87c2.21-.96 2.21-.96 3.06-3.13h2v-2h2v-2l1.88-.25c2.3-.54 2.3-.54 3.18-2.75l.94-2 3-1v-2h2v-2h3v-2h3v-2c1.9-1.73 1.9-1.73 4.38-3.62q1.2-.95 2.46-1.92C176 120 176 120 178 120v-2h3l1-2c3.46-3 3.46-3 7-3v-2h2v-2h3v-2c2.34-1.73 2.34-1.73 5.38-3.62l3.02-1.92C205 100 205 100 207 100v-2h4v-2h3v-2h4v-2c2.52-1.73 2.52-1.73 5.81-3.62l3.27-1.92C230 85 230 85 233 85v-2l7-1v-2h4v-2h3v-2h4v-2h4v-2h5v-2l4.69-1.94 2.63-1.09c2.56-.93 5-1.51 7.68-1.97v-2h5v-2l4.69-.94 8.14-1.63L295 58v-2h6v-2h5v-2l5-1v-1l3.46-.84 4.48-1.1 2.28-.55c3.7-.65 3.7-.65 6.78-2.51 2.67-.14 5.32-.04 8 0v-2h7v-2h9v-2l4.44-.44 2.5-.24c2.05-.1 2.05-.1 3.06-1.32q4.13-.53 8.25-.94c12.74-.57 12.74-.57 24.6-4.08 2.53-1.15 4.28-1.23 7.05-1.23M431 372l.08 45.67a7890 7890 0 0 1 .03 26.76l.01 2.24c0 5.1 0 5.1-1.12 7.33a167 167 0 0 0-.16 9.1l-.03 7.28-.07 16.43-.08 17.78-.16 37.79a52061 52061 0 0 1-.3 69.36l-.02 5.08c-.02 8.17-.18 16.25-.95 24.39-.4 4.95-.4 9.9-.42 14.86l-.02 3.46-.05 7.38-.08 11.76-.15 22.9-.27 42.46q-.15 23-1.24 45.97a4388 4388 0 0 1-22.56.1l-3.66.01C397 790 397 790 396 789q-3.46-.31-6.94-.5c-6.84-.39-6.84-.39-9.06-1.5a188 188 0 0 0-5.87-.94A941 941 0 0 1 355 783v-2h-9v-1l-7-1v-2h-7v-2h-7v-2l-2.69.13c-3.37-.13-5.24-.86-8.31-2.13l-3.56-.5c-3.01-.44-4.87-.96-7.44-2.5v-2l-2.19.18c-3.4-.22-4.99-1.25-7.81-3.12a24 24 0 0 0-10-4.06l-3-2c-.37-2.4-.37-2.4-.37-5.48l-.02-3.55.03-3.93v-4.15q-.02-5.72.01-11.44v-12.33l.03-21.37q.04-15.45.04-30.9.01-25.07.05-50.13l.07-48.7v-18.08q.07-62.48.16-124.94l2.94-.94c2.9-.76 2.9-.76 4.06-2.06q2.5-.06 5 0v-2l3.69-.75c7.32-1.63 14.8-3.49 21.52-6.87 2.91-1.44 4.6-1.66 7.79-1.38v-2l2.09-.52c4.8-1.23 9.3-2.54 13.79-4.67 3.18-1.5 5.53-2.27 9.12-1.81v-2h6v-2l3.25-.77 4.31-1.04 2.14-.5A73 73 0 0 0 379 388c3.56-1.6 6.09-2.22 10-2v-2l6-2 2.23-.8c4.03-1.42 7.43-2.62 11.77-2.2v-2c3.82-1.42 6.91-2.24 11-2v-2c4.21-1.66 6.63-2.07 11-1M244 507l5 1a111243 111243 0 0 1-.32 100.56v2.13q-.07 17.12-.1 34.23a28389 28389 0 0 1-.18 54.85 7006 7006 0 0 1-.08 25.37q0 4.65-.04 9.3v2.74c-.03 4.32-.08 7.96-2.28 11.82-2.05.83-2.05.83-4.54 1.1l-2.7.36-2.82.29-5.54.67-2.48.27c-1.92.12-1.92.12-2.92 1.31q-2.28.1-4.56.06l-2.5-.02L216 753v2l-3.44.44c-3.37.17-3.37.17-4.56 1.56-2.67.14-5.32.04-8 0v2l-2.32.48a181 181 0 0 0-18.93 5.14l-1.99.67c-3.13.91-3.13.91-5.76 2.71q-2.5.06-5 0v2l-2.15.4-2.79.54-2.77.52c-2.24.32-2.24.32-3.29 1.54q-2.5.06-5 0v2h-5v2h-6v2c-3.13 1.86-5.37 2.2-9 2v2l-1.83.59-2.42.78-2.4.78c-2.35.78-2.35.78-4.4 1.95-1.95.9-1.95.9-5.95.9v2h-5v2l-11 1V558c7.88-3.37 7.88-3.37 13-3v-2c3.82-1.42 6.91-2.24 11-2v-2l11-1v-2h5v-2h6v-2h5v-2h6v-2l7.19-2.5 2.04-.72c3.7-1.27 6.85-2.08 10.77-1.78v-2h6v-2a659 659 0 0 1 8.1-2.34 28 28 0 0 1 7.9-.66v-2c3.82-1.42 6.91-2.24 11-2v-2c2.92-1.95 4.63-2.45 8-3v-1l2.12-.4 2.75-.54 2.75-.52c2.38-.44 2.38-.44 4.38-1.54q3-.06 6 0v-2h5v-2h6z"/><path fill="#636463" d="M380.41 134.87H410c2.11.14 3.96.6 6 1.13q3.47.31 6.95.54l2 .13 10.58.67L446 138v2l2.15-.04 2.79-.02 2.77-.04c2.29.1 2.29.1 3.29 1.1l3.56.38c3.61.4 6.7 1.35 10.08 2.72 5.02 1.91 10.21 3.35 15.36 4.9v2h5v2h4v2l2.5.25A34 34 0 0 1 509 160l1 2q2.97 1.1 6 2v2l2.25.75c3.02 1.37 4.73 2.61 6.75 5.25-.4 2.13-.4 2.13-1 4l-5.81-.44-3.27-.24C512 175 512 175 509 174q-2.1-.2-4.24-.28l-2.48-.11-2.6-.11-7.3-.31c-2.38-.19-2.38-.19-5.04-.7a74 74 0 0 0-11.2-.62H436a6308 6308 0 0 0-23.28 0h-2.15c-3.66.01-7 .32-10.57 1.13-3.87.3-7.73.5-11.6.72-3.39.14-3.39.14-6.4 1.28q-2.9.26-5.81.44c-4.36.32-8.12.86-12.19 2.56v1h-11v2l-3.43.4-4.44.54-2.27.26c-4.06.43-4.06.43-7.86 1.8q-3.5.06-7 0v2a27 27 0 0 1-12 2v2h-6v2h-5v2l-1.83.59-2.42.78-2.4.78c-2.35.8-2.35.8-4.46 1.95-1.89.9-1.89.9-4.89.9v2l-4.31 1.5-2.43.84C280 204 280 204 277 204v2h-4v2h-4v2h-3v2l-4.37 2.5-2.47 1.4C257 217 257 217 255 217v2h-4v2h-2v2h-3l-1 2-3 1v2l-2.94.81L236 230l-1 3h-2v2l-4 1v2l-1.94.31-2.06.69-1 3h-2v2h-2v2h-2v2a170 170 0 0 1-4.36 3.66c-4.57 3.74-8.32 8.24-12.09 12.77L200 266h-2v2h-2v2h-2v3h-2l-.87 1.81c-2.58 5-2.58 5-6.13 6.19v3h-2l-.81 1.63L178 294h-2v3h-2v3h-2a47 47 0 0 0-3 7h-2v3h-2v3h-2v3h-2l-.37 1.67a64 64 0 0 1-2.7 7.58l-1.09 2.7L156 330h-2v4h-2l-.37 1.73a33 33 0 0 1-2.7 6.52l-1.09 2.14L147 346h-2v5h-2v3h-2v4h-2v5h-2l-.37 2.25A24 24 0 0 1 134 372h-2v2h-2l-.78 1.8c-1.32 2.38-2.65 3.71-4.72 5.45l-1.84 1.58C121 384 121 384 119 384v2h-2v2l-5 2v2c-2.9 2.04-4.4 3-8 3v2h-3v2h-4v2c-6.5 3-6.5 3-11 3v2l-9 2v2l-8 2v2l-3.68.84-4.76 1.1-2.43.55c-3.88.6-3.88.6-7.13 2.51q-3.5.06-7 0v2l-6.15.68c-1.86.14-1.86.14-2.85 1.32q-2.27.34-4.56.56l-2.5.26L26 424v1l-14 1c-.1-6.28.24-12.33 1-18.56l.29-2.48L14 399h2v-6h2v-6h2l.38-3.19A33 33 0 0 1 23 375h2v-5h1l1-5h2v-4h2l.37-1.6c.77-2.94 1.73-5.78 2.7-8.65l1.09-3.27L36 345h2v-3h2v-4h2l.81-2.06q2.04-5 4.19-9.94h2v-3h2v-3h2l.37-1.7c.68-2.49 1.62-4.7 2.7-7.05l1.09-2.42L58 307h2v-2h2l.75-2.12c1.41-3.25 3.28-5.95 5.25-8.88l1-3h2v-2h2v-3h2l.81-2.19A43 43 0 0 1 80 276h2v-2l4-1v-2h2c1.2-2.33 2.17-4.5 3-7h2v-2h2v-2h2v-2h2l.81-1.81A16 16 0 0 1 104 251h2v-2h2v-2h2v-2c1.38-1.62 1.38-1.62 3-3h2v-2h2v-2q2.98-2.03 6-4l1-2h2l1-2c1.75-1.34 3.57-2.55 5.4-3.78 1.75-1.15 1.75-1.15 2.6-3.22h2v-2a45 45 0 0 1 13-7v-2l5-2v-2h2v-2l2.16-1.14c6.4-3.39 6.4-3.39 12.4-7.42 4.16-3.1 10.14-7.44 15.44-7.44v-2h4v-2h3v-2l8.75-3.94 2.5-1.13 2.42-1.08 2.22-1A38 38 0 0 1 216 175v-2h4v-2l3.75-1.12c3.86-1.27 7.3-2.9 10.88-4.82 5.8-3 11.63-4.64 17.94-6.19A90 90 0 0 0 264 155c3.87-1.44 6.86-2.24 11-2v-2h7v-2l3.94-.87 2.46-.56q2.58-.57 5.17-1.11l2.43-.52 2.25-.48c1.76-.3 1.76-.3 2.75-1.46q2.28-.1 4.56-.06l2.5.02 1.94.04v-2l10-1v-1h12v-2l2.93-.17 22.27-1.3 2.09-.11a72 72 0 0 0 8.6-.95c4.2-.64 8.3-.61 12.52-.6m327.34 547.82 2.25.31v4h-2v6h-2l-.39 2.14a74 74 0 0 1-2.42 8.55l-.96 2.88c-1.44 2.85-2.45 3.1-5.23 4.43-.64 1.9-.64 1.9-1 4a70 70 0 0 1-2.5 4.06A27 27 0 0 0 690 726h-2v3h-2v3h-2v2h-2l-.37 1.75A30 30 0 0 1 679 742h-2v2h-2v2h-2l-2 5h-2l-1 5h-2v2h-2v3h-2l-.81 1.75A33 33 0 0 1 657 769h-2v2h-2v2h-2v2h-2v2h-2l-1 4h-2v2h-2l-.81 1.81A16 16 0 0 1 637 790h-2v2h-2v2l-4 1v2h-2l-.81 1.81A16 16 0 0 1 622 804h-2v2h-2v2c-4.38 3-4.38 3-7 3v2c-1.9 1.5-1.9 1.5-4.37 3.13l-2.47 1.63C602 819 602 819 600 819v2h-2v2c-7.43 4.43-7.43 4.43-11 5v2c-3 2-3 2-6 2v2h-3v2l-6 1v2h-3v2l-6 2v2h-3v2h-4l-1 2c-6.23 3-6.23 3-10 3v2h-4v2h-4v2l-2.74 1.02-3.57 1.36-3.55 1.33c-3.23 1.2-3.23 1.2-6.14 3.29h-4v2c-3.82 1.42-6.91 2.24-11 2v2l-3.25.77-4.31 1.04-2.14.5c-3.52.86-6.8 1.83-10.11 3.32-3.35 1.44-5.59 1.63-9.19 1.37v2l-7 1v1c-11.5 3.05-11.5 3.05-16.69 3.63-3.15 0-3.15 0-4.31 1.37-2.32.32-4.64.51-6.97.72-2.02.07-2.02.07-3.03 1.28q-2.77.34-5.56.56l-3.07.26-2.37.18v1h-15v2c-15.51 1-30.99 1.16-46.53 1.13h-10.09c-14.49.02-28.92-.13-43.38-1.13v-2h-14v-2h-11v-2l-1.72.07c-5.2.12-9.29-.46-14.28-2.07q-3.21-.83-6.44-1.62l-3.18-.8L260 882v-2h-7v-2l-2.12.13c-3.26-.15-5.84-1-8.88-2.13v-2l-2.57-.37a84 84 0 0 1-10.3-2.7l-3.5-1.09L223 869v-2h-5v-2l-1.69-.31c-2.75-.82-4.85-2.22-7.31-3.69-2.2-.7-2.2-.7-4-1v-2h-3v-2h-4v-2h-4v-2l-2-.75c-6.43-2.68-11.14-5.12-16-10.25-2.17-1.3-2.17-1.3-4-2v-2l-4-1v-2l-5-2v-2h-2v-2l-1.81-.81c-2.23-1.21-3.64-2.18-5.19-4.19v-4h2v-2l5-2v-2c2.9-2.04 4.4-3 8-3v-2a1327 1327 0 0 1 9.96-4.51l2.15-.96 1.97-.89C185 801 185 801 189 801v-2h5v-2h4v-2l2.6-.77c7.3-2.13 7.3-2.13 14.34-4.98 3.26-1.33 5.57-1.5 9.06-1.25v-2h7v-2l3.19-.44A68 68 0 0 0 246 781q3.5-.06 7 0v-2c4.76-.37 8.28.62 12.68 2.2 3.39 1.17 6.83 1.97 10.32 2.8v2h6v2h6v2l3.06.31c4.05.7 7.2 2.05 10.94 3.69q2.99.61 6 1v2h7v2h6v2l2.69.31c4.8.68 9.48 1.88 14.2 3 3.37.75 6.68 1.3 10.11 1.69v2h8v2l3.06-.25c4.99-.03 9.53 1.4 14.27 2.75A69 69 0 0 0 389 815v2h14v1l3.9.18 5.04.26 2.57.12 2.45.12 2.27.11C421 819 421 819 422 820q2.02.17 4.06.2l2.6.07 2.84.05 2.9.06 15.36.31L465 821v-2l17-1v-1h13v-2l2.27-.37c11.05-.79 11.05-.79 20.73-4.63q3.5-.06 7 0v-2l6-1v-1l12-1v-2c3.82-1.42 6.91-2.24 11-2v-2h5v-2h4v-2l2.31-.69c4.21-1.5 8.17-3.36 12.2-5.29C580 788 580 788 583 788v-2h4v-2l2.05-.77 2.7-1.04 2.67-1.02A33 33 0 0 0 601 777h2v-2c1.64-1.29 1.64-1.29 3.81-2.62l2.15-1.36C611 770 611 770 614 770v-2h2v-2h4v-2l5-2v-2l4-1v-2q2.97-2.05 6-4l1.75-1.75L638 750h2v-2c4.47-4 4.47-4 7-4v-2h2v-2h2v-2l1.88-.25c2.28-.56 2.28-.56 3.3-2.69L657 733l1-2h2v-2h2v-2c2.38-2.62 2.38-2.62 5-5h2v-2h2v-2h2v-2h2v-2h2l.69-1.69c1.69-2.97 3.78-5.03 6.31-7.31h2v-2h2l.81-1.94C690 699 690 699 693 698v-3c1.6-1.65 1.6-1.65 3.75-3.37a35 35 0 0 0 6.44-6.57C705 683 705 683 707.75 682.7"/><path fill="#042f6d" d="M723 718h1c.37 3.25.27 4.62-1.69 7.31L720 728q-2.58 3.95-5 8l-2-1c1.48-5.66 1.48-5.66 4.13-7.37L719 727v-3h2l.44-1.87C722 720 722 720 723 718"/><path fill="#545554" d="m623 762 1 4h-4v-2zm-7 4h4c-1.05 2.62-1.65 3.8-4.12 5.25L614 772v-4h2z"/><path fill="#535453" d="m690 719 3 1-3 6h-2v3h-2v3h-2c-.19-2.37-.19-2.37 0-5l3-2q1.09-2.46 2-5z"/><path fill="#505050" d="M60 305h1v6h-3l.31 2.25C58 316 58 316 55.5 318.31L53 320a42 42 0 0 1 3.06-8.75l1.1-2.42L58 307h2zm-9 15 2 1Z"/><path fill="#042860" d="M141 149h2l-1 5-4 1v3l-4-1 1-2h2v-2h2v-2h2z"/><path fill="#4c4d4c" d="M587 784h1v5l-9 3 1-4h3v-2h4z"/><path fill="#062b6d" d="m715 300 4 1 1 6h3v5h-2c-1.46-2.65-2-3.9-2-7h-2z"/><path fill="#404140" d="M179 841c3.34.6 5.5 1.68 8 4v3c-2.87-.69-2.87-.69-6-2-1.37-2.62-1.37-2.62-2-5"/><path fill="#052f60" d="M870 661h5l-2 1q-.52 3-1 6l-2 3h-2v-4l2-1z"/><path fill="#031341" d="M245 604h3v9h-3z"/><path fill="#07336b" d="M472 118h4l1 2h3v4l-8-2z"/><path fill="#05326b" d="m244 597 1 4h3v3h-3v9h-1z"/><path fill="#052263" d="M789 325h2v3h-2v3h-2v3h-2v2h-2c.25-1.87.25-1.87 1-4l2-.94 2-1.06c.81-2.56.81-2.56 1-5"/><path fill="#052451" d="M824 282v3h-2v2h-2v2h-2l-1 2c.47-4.22 2.05-9 7-9"/><path fill="#062b6f" d="M875 651h4l-2 6h-4c.88-4.87.88-4.87 2-6"/><path fill="#062c6d" d="M701 508h1v7l-5 1a37 37 0 0 1 4-8"/><path fill="#072d6c" d="M280 754c2.17.5 4 1 6 2v2h3l-1 2c-3.37-.55-5.08-1.05-8-3z"/><path fill="#062b5d" d="M104 555h6l-1 3-6 1z"/><path fill="#545554" d="M240 224h3c-.12 1.88-.12 1.88-1 4-3.06 1.25-3.06 1.25-6 2l1-4h3z"/><path fill="#062a6e" d="M127 779h3v4l-7 2v-4l4 1z"/><path fill="#062651" d="M215 516h6v3l-5 2z"/><path fill="#052b5c" d="M743 449h1v7h-5v-2h2v-3h2z"/><path fill="#063168" d="M532 248h6l-1 3c-3.06 1.19-3.06 1.19-6 2l-1-3h2z"/><path fill="#06336c" d="m631 821 1 4-7 2v-2h2v-2h4z"/><path fill="#062557" d="M423 755h4v5h-4z"/><path fill="#04244c" d="M704 745h2c-.65 3.49-2.1 6.03-4 9l-3-1 1.94-2.31c2.2-2.57 2.2-2.57 3.06-5.69"/><path fill="#053168" d="M785 388h1v7h-5v-2h2v-2h2z"/><path fill="#062a67" d="m420 373 1 4-6 2v-4h5z"/><path fill="#052d61" d="M695 516h2c-.75 4.75-.75 4.75-3 7l-3-1h2v-3h2z"/><path fill="#042753" d="M767 415c.69 1.81.69 1.81 1 4-1.31 1.75-1.31 1.75-3 3h-2v-3h2z"/><path fill="#032a6e" d="M856 266c2 2.99 2.94 5.6 4 9l-4-1z"/><path fill="#052a5a" d="m817 751 4 1c-.31 1.94-.31 1.94-1 4l-3 1z"/><path fill="#07306e" d="M166 535v3l-6 1 1-3c2-1 2-1 5-1"/><path fill="#042a67" d="m741 346 4 2v4h-2v-2h-2z"/></svg>